<svg width="512" height="512" viewBox="0 0 512 512" fill="none" xmlns="http://www.w3.org/2000/svg" xmlns:xlink="http://www.w3.org/1999/xlink" class=""><rect id="r36" width="512" height="512" x="0" y="0" rx="128" fill="#000" stroke="#FFFFFF" stroke-width="0" stroke-opacity="100%" paint-order="stroke"></rect><clipPath id="clip"><use xlink:href="#r36"></use></clipPath><defs><linearGradient id="r37" gradientUnits="userSpaceOnUse" gradientTransform="rotate(90)" style="transform-origin: center center 0px;"><stop stop-color="#000"></stop><stop offset="1" stop-color="#3F2B96"></stop></linearGradient><radialGradient id="r38" cx="0" cy="0" r="1" gradientUnits="userSpaceOnUse" gradientTransform="translate(256) rotate(90) scale(512)"><stop stop-color="white"></stop><stop offset="1" stop-color="white" stop-opacity="0"></stop></radialGradient></defs><svg width="500" height="500" viewBox="0 0 72 43" fill="none" xmlns="http://www.w3.org/2000/svg" x="6" y="6" style="color: rgb(255, 255, 255);" alignment-baseline="middle">
<path d="M12.48 43V3.34H0.3V0.159997H35.04V3.34H22.86V43H12.48ZM15.66 39.82H19.68V3.34H15.66V39.82ZM36.532 43L48.832 28.48L36.532 10.84H49.312L56.992 22L66.412 10.84H70.552L58.852 24.7L71.572 43H59.032L50.752 31.18L40.672 43H36.532ZM60.712 39.82H65.512L47.512 14.02H42.712L60.712 39.82Z" fill="white"></path>
</svg>
</svg>