<svg width="149" height="46" viewBox="0 0 149 46" fill="none" xmlns="http://www.w3.org/2000/svg">
<path d="M12.48 46V6.34H0.3V3.16H35.04V6.34H22.86V46H12.48ZM15.66 42.82H19.68V6.34H15.66V42.82ZM45.532 46L35.632 13.84H46.612L55.072 41.62L61.972 16.96H72.772L80.272 41.62L89.092 13.84H92.392L82.252 46H70.732L63.592 22.78L57.052 46H45.532ZM47.932 42.82H52.072L44.152 17.02H40.012L47.932 42.82ZM73.132 42.82H77.272L70.312 20.14H66.172L73.132 42.82ZM102.355 10.96C99.4153 10.96 97.0753 8.62 97.0753 5.68C97.0753 2.74 99.4153 0.399997 102.355 0.399997C105.295 0.399997 107.635 2.74 107.635 5.68C107.635 8.62 105.295 10.96 102.355 10.96ZM102.355 7.96C103.615 7.96 104.635 7 104.635 5.68C104.635 4.42 103.615 3.4 102.355 3.4C101.095 3.4 100.075 4.42 100.075 5.68C100.075 7 101.095 7.96 102.355 7.96ZM97.1953 46V13.84H107.575V46H97.1953ZM100.375 42.82H104.395V17.02H100.375V42.82ZM113.29 46L125.59 31.48L113.29 13.84H126.07L133.75 25L143.17 13.84H147.31L135.61 27.7L148.33 46H135.79L127.51 34.18L117.43 46H113.29ZM137.47 42.82H142.27L124.27 17.02H119.47L137.47 42.82Z" fill="white"/>
</svg>
